<?xml version="1.0" ?>
<!-- Uploaded to: SVG Repo, www.svgrepo.com, Generator: SVG Repo Mixer Tools -->
<svg width="800px" height="800px" viewBox="0 0 56 56" xmlns="http://www.w3.org/2000/svg">
<defs>
<style>.cls-1{fill:#231f20;}</style>
</defs>
<title/>
<g data-name="13 Golden Fish" id="_13_Golden_Fish">
<path class="cls-1" d="M7,31a3,3,0,1,0-3-3A3,3,0,0,0,7,31Zm0-4a1,1,0,1,1-1,1A1,1,0,0,1,7,27Z"/>
<path class="cls-1" d="M12,28a1,1,0,0,0,0,2,1,1,0,0,1,0,2,1,1,0,0,0,0,2,3,3,0,0,0,0-6Z"/>
<path class="cls-1" d="M46.92,42.06a17.73,17.73,0,0,1,0-28.12l6.69-5.15A1,1,0,0,0,53,7H47A21,21,0,0,0,28,19.11V19a11,11,0,0,0-22-.38A13,13,0,0,0,21.65,39.15,5,5,0,0,0,26.5,43a1,1,0,0,0,0-2,3,3,0,0,1-3-3,.9.9,0,0,0,0-.16,13.11,13.11,0,0,0,3.29-4.33A21,21,0,0,0,47,49h6a1,1,0,0,0,.61-1.79ZM17,10a9,9,0,0,1,9,9v2.1A12.93,12.93,0,0,0,8.26,16.91,9,9,0,0,1,17,10ZM15,39A11,11,0,1,1,26,28,11,11,0,0,1,15,39Zm32,8A19,19,0,0,1,47,9h3.06L45.7,12.36a19.72,19.72,0,0,0,0,31.28L50.06,47Z"/>
</g>
</svg>