<?xml version="1.0" ?>
<!-- Uploaded to: SVG Repo, www.svgrepo.com, Generator: SVG Repo Mixer Tools -->
<svg width="800px" height="800px" viewBox="0 0 56 56" xmlns="http://www.w3.org/2000/svg">
<defs>
<style>.cls-1{fill:#231f20;}</style>
</defs>
<title/>
<g data-name="14 Golden Fish lionchu" id="_14_Golden_Fish_lionchu">
<path class="cls-1" d="M12,28a1,1,0,0,0,0,2,1,1,0,0,1,0,2,1,1,0,0,0,0,2,3,3,0,0,0,0-6Z"/>
<path class="cls-1" d="M48.49,30.49a9,9,0,0,1,0-11l5.3-6.9a1,1,0,0,0,.11-1A1,1,0,0,0,53,11H52a14,14,0,0,0-13.08,9.05A12,12,0,0,0,28,13H18A16,16,0,1,0,29.83,39.74,5,5,0,0,0,34.5,43a1,1,0,0,0,0-2,3,3,0,0,1-3-3,1,1,0,0,0-.07-.34,16.23,16.23,0,0,0,.84-1.46l.09,0A11.93,11.93,0,0,0,38.93,30,14,14,0,0,0,52,39h1a1,1,0,0,0,.9-.56,1,1,0,0,0-.11-1ZM18,43A14,14,0,0,1,4,29c0-.22,0-.44,0-.67a3,3,0,1,0,.11-1.17A14,14,0,1,1,18,43ZM6,28a1,1,0,1,1,1,1A1,1,0,0,1,6,28Zm27.36,5.44A15.93,15.93,0,0,0,25.73,15H28a10,10,0,0,1,5.36,18.44ZM40,25A12,12,0,0,1,50.93,13.05l-4,5.24a11,11,0,0,0,0,13.42l4,5.24A12,12,0,0,1,40,25Z"/>
</g>
</svg>