<?xml version="1.0" encoding="iso-8859-1"?>
<!-- Uploaded to: SVG Repo, www.svgrepo.com, Generator: SVG Repo Mixer Tools -->
<svg fill="#000000" height="800px" width="800px" version="1.1" id="Layer_1" xmlns="http://www.w3.org/2000/svg" xmlns:xlink="http://www.w3.org/1999/xlink" 
	 viewBox="0 0 511.999 511.999" xml:space="preserve">
<g>
	<g>
		<circle cx="409.156" cy="277.264" r="8.847"/>
	</g>
</g>
<g>
	<g>
		<path d="M510.952,300.462c-0.676-1.263-16.948-31.275-50.812-61.517c-11.344-10.13-25.53-20.96-42.514-30.661
			c-0.076-0.282-0.163-0.563-0.268-0.842c-0.853-2.258-21.299-55.89-56.215-105.531c-20.815-29.594-42.482-51.538-64.397-65.222
			c-28.526-17.81-57.448-21.768-85.97-11.754c-50.257,17.643-83.421,61.026-95.904,125.458c-7.599,39.223-5.678,76.166-3.396,95.515
			c-27.396-15.082-58.312-30.44-99.997-43.437c-3.636-1.135-7.597,0.19-9.821,3.289c-2.223,3.099-2.211,7.272,0.031,10.357
			c29.261,40.276,29.261,94.397,0,134.673c-2.242,3.085-2.254,7.259-0.031,10.357c1.692,2.359,4.391,3.69,7.189,3.69
			c0.877,0,1.764-0.13,2.632-0.401c41.953-13.08,72.997-28.551,100.523-43.728c6.945,33.007,30.909,122.842,92.057,162.603
			c9.379,6.099,20.374,9.143,32.945,9.143c25.941,0,58.587-12.966,97.565-38.811c40.02-26.537,72.348-57.186,75.689-60.385
			l98.546-81.812C512.037,308.759,512.935,304.168,510.952,300.462z M132.241,153.758c11.381-58.738,39.776-96.464,84.396-112.129
			c85.748-30.108,154.847,105.212,176.829,154.617c-25.309-10.846-55.357-18.394-90.11-18.623V106.85
			c0-4.886-3.961-8.847-8.847-8.847c-4.886,0-8.847,3.961-8.847,8.847v71.83c-13.559,1.703-28.027,5.326-42.608,10.109V74.286
			c0-4.886-3.961-8.847-8.847-8.847s-8.847,3.961-8.847,8.847v120.825c-14.71,5.656-29.192,12.167-42.607,18.735v-90.113
			c0-4.886-3.961-8.847-8.847-8.847s-8.847,3.961-8.847,8.847v98.895c0,0.069,0.009,0.135,0.01,0.202
			c-14.59,7.673-27.119,14.896-36.181,20.317C126.727,224.391,125.376,189.194,132.241,153.758z M324.791,438.894
			c-35.367,23.451-83.35,47.618-111.086,29.581c-52.549-34.168-75.649-113.313-83.361-147.067l62.455,25.252v65.314
			c0,4.886,3.961,8.847,8.847,8.847s8.847-3.961,8.847-8.847v-58.16l42.608,17.228v67.465c0,4.886,3.961,8.847,8.847,8.847
			c4.886,0,8.847-3.961,8.847-8.847v-60.311l67.719,27.38c8.042,3.217,16.454,4.837,24.827,4.957
			C352.102,419.565,338.89,429.546,324.791,438.894z M397.435,380.903c-14.631,12.148-34.692,15.308-52.32,8.256l-222.539-89.977
			c-2.572-1.362-5.759-1.435-8.486,0.099c-24.407,13.747-50.976,28.045-85.481,40.68c16.976-35.778,16.976-77.241,0-113.019
			c34.051,12.468,60.366,26.555,84.509,40.135c2.884,2.169,6.922,2.436,10.128,0.359c1.112-0.721,111.992-72.142,178.5-72.142
			c54.82,0,103.982,18.981,146.122,56.414c22.944,20.383,37.461,41.01,43.795,50.969L397.435,380.903z"/>
	</g>
</g>
<g>
	<g>
		<path d="M339.466,273.299c-0.359-4.873-4.599-8.538-9.473-8.174L179.6,276.183c-4.872,0.358-8.533,4.599-8.174,9.471
			c0.343,4.652,4.222,8.199,8.813,8.199c0.218,0,0.438-0.008,0.659-0.024l150.393-11.058
			C336.164,282.413,339.824,278.172,339.466,273.299z"/>
	</g>
</g>
</svg>