<?xml version="1.0" encoding="iso-8859-1"?>
<!-- Uploaded to: SVG Repo, www.svgrepo.com, Generator: SVG Repo Mixer Tools -->
<svg fill="#000000" height="800px" width="800px" version="1.1" id="Layer_1" xmlns="http://www.w3.org/2000/svg" xmlns:xlink="http://www.w3.org/1999/xlink" 
	 viewBox="0 0 512 512" xml:space="preserve">
<g>
	<g>
		<g>
			<path d="M511.584,209.195c1.111-4.016-0.04-8.317-3.008-11.241c-2.967-2.924-7.284-4.017-11.284-2.845
				c-20.225,5.908-48.562,32.651-67.696,56.556c-17.979,21.868-32.827,46.465-44.541,67.735
				c-17.738-16.864-54.601-50.457-94.93-78.602V189.57c0-30.977-25.201-56.178-56.178-56.178h-31.207
				c-30.983,0-56.189,25.201-56.189,56.178v9.892C95.6,212.97,56.698,253.463,44.196,303.489l-11.28-8.235
				c-5.123-3.741-12.31-2.62-16.049,2.504c-3.741,5.123-2.62,12.308,2.503,16.049l20.853,15.226
				c-0.107,1.674-0.182,3.354-0.23,5.039l-16.72,13.624c-4.917,4.006-5.656,11.241-1.649,16.158
				c2.271,2.786,5.576,4.231,8.911,4.231c2.551,0,5.117-0.844,7.249-2.582l4.143-3.376c11.417,67.827,70.55,119.669,141.574,119.669
				c20.161,0,45.411-8.74,75.233-26.007v3.701c0,16.524,13.439,29.967,29.955,29.967h26.234c16.517,0,29.955-13.443,29.955-29.967
				v-66.405c17.044-14.463,31.119-27.448,40.173-36.048c11.715,21.272,26.564,45.873,44.545,67.743
				c19.136,23.906,47.474,50.65,67.696,56.556c1.061,0.311,2.144,0.461,3.22,0.461c2.976,0,5.885-1.158,8.064-3.306
				c2.967-2.924,4.118-7.226,3.007-11.241C488.245,382.841,488.245,293.606,511.584,209.195z M169.523,189.57
				c0-18.309,14.901-33.205,33.217-33.205h31.207c18.31,0,33.206,14.896,33.206,33.206v36.112l0.018,0.016
				c-33.537-20.614-61.626-31.052-83.671-31.052c-4.685,0-9.356,0.226-13.978,0.674V189.57z M321.907,411.934v47.558
				c0,3.857-3.133,6.995-6.983,6.995H288.69c-3.851,0-6.984-3.137-6.984-6.995V441.41l-0.007-0.001
				c12.789-8.567,26.248-18.437,40.23-29.498L321.907,411.934z M326.01,378.951c-22.053,18.5-42.933,34.198-62.056,46.656
				c-33.383,21.732-61.204,33.219-80.452,33.219c-66.5,0-120.603-54.102-120.603-120.603c0-57.571,40.936-107.343,97.37-118.353
				c7.538-1.493,15.356-2.25,23.233-2.25c20.87,0,51.531,13.381,88.671,38.7c42.265,28.799,82.441,65.792,99.308,81.906
				C362.184,347.115,345.82,362.338,326.01,378.951z M482.779,446.413c-10.629-8.554-23.167-20.888-35.293-36.046
				c-0.033-0.04-0.065-0.08-0.099-0.121c-19.051-23.159-34.614-50.044-46.419-72.024c11.804-21.98,27.368-48.865,46.419-72.024
				c0.033-0.04,0.067-0.08,0.099-0.121c12.125-15.157,24.663-27.492,35.293-36.045C467.216,301.308,467.216,375.14,482.779,446.413z
				"/>
			<circle cx="143.678" cy="293.042" r="11.486"/>
			<path d="M240.688,311.039c0-23.38-19.022-42.402-42.403-42.402c-6.344,0-11.486,5.143-11.486,11.486
				c0,6.343,5.142,11.486,11.486,11.486c10.714,0,19.431,8.717,19.431,19.43c0,10.714-8.717,19.431-19.431,19.431
				c-6.344,0-11.486,5.143-11.486,11.486c0,6.343,5.142,11.486,11.486,11.486c10.714,0,19.431,8.717,19.431,19.431
				c0,10.713-8.717,19.43-19.431,19.43c-6.344,0-11.486,5.143-11.486,11.486c0,6.343,5.142,11.486,11.486,11.486
				c23.381,0,42.403-19.022,42.403-42.402c0-12.183-5.172-23.175-13.427-30.917C235.515,334.214,240.688,323.222,240.688,311.039z"
				/>
			<path d="M259.735,307.306c0,6.343,5.142,11.486,11.486,11.486c10.714,0,19.431,8.717,19.431,19.431s-8.717,19.431-19.431,19.431
				c-6.344,0-11.486,5.143-11.486,11.486c0,6.343,5.142,11.486,11.486,11.486c23.381,0,42.403-19.022,42.403-42.403
				c0-23.381-19.022-42.403-42.403-42.403C264.877,295.82,259.735,300.963,259.735,307.306z"/>
			<path d="M74.659,180.29c0-20.584-16.747-37.329-37.329-37.329C16.747,142.961,0,159.706,0,180.29s16.747,37.329,37.329,37.329
				C57.912,217.62,74.659,200.874,74.659,180.29z M22.972,180.29c0-7.917,6.44-14.357,14.357-14.357s14.357,6.44,14.357,14.357
				s-6.44,14.357-14.357,14.357S22.972,188.208,22.972,180.29z"/>
			<path d="M92.866,116.941c26.025,0,47.198-21.174,47.198-47.199c0-26.025-21.173-47.198-47.198-47.198
				c-26.025,0-47.199,21.173-47.199,47.198S66.84,116.941,92.866,116.941z M92.866,45.515c13.358,0,24.226,10.868,24.226,24.226
				c0,13.359-10.868,24.227-24.226,24.227c-13.358,0-24.226-10.868-24.226-24.227C68.639,56.383,79.507,45.515,92.866,45.515z"/>
		</g>
	</g>
</g>
</svg>