<?xml version="1.0" ?>
<!-- Uploaded to: SVG Repo, www.svgrepo.com, Generator: SVG Repo Mixer Tools -->
<svg width="800px" height="800px" viewBox="0 0 56 56" xmlns="http://www.w3.org/2000/svg">
<defs>
<style>.cls-1{fill:#231f20;}</style>
</defs>
<title/>
<g data-name="08 Neon Fish" id="_08_Neon_Fish">
<path class="cls-1" d="M10,25a3,3,0,1,0,3,3A3,3,0,0,0,10,25Zm0,4a1,1,0,1,1,1-1A1,1,0,0,1,10,29Z"/>
<path class="cls-1" d="M15,28a1,1,0,0,0,0,2,1,1,0,0,1,0,2,1,1,0,0,0,0,2,3,3,0,0,0,0-6Z"/>
<path class="cls-1" d="M52.87,20A3.21,3.21,0,0,0,50,19.71L42.84,22H37V19a1,1,0,0,0-1-1h-.5a4.49,4.49,0,0,0-4.45,4H12.2A10.2,10.2,0,0,0,2,32.2,5.8,5.8,0,0,0,7.8,38H27a1.1,1.1,0,0,0,.4-.08L33,35.47V36a1,1,0,0,0,2,0V34.59l8-3.52,6.86,2.21a3.3,3.3,0,0,0,1.19.22A3.17,3.17,0,0,0,52.87,33a2.43,2.43,0,0,0,1.13-2V22.06A2.43,2.43,0,0,0,52.87,20ZM35,20.05V22h-2A2.5,2.5,0,0,1,35,20.05ZM26.79,36H7.8A3.81,3.81,0,0,1,4,32.2,8.21,8.21,0,0,1,12.2,24H42v5.35ZM52,30.94a.49.49,0,0,1-.25.37,1.23,1.23,0,0,1-1.12.1l-.07,0L44,29.27V23.73l6.63-2.14a1.23,1.23,0,0,1,1.12.1.49.49,0,0,1,.25.37Z"/>
<path class="cls-1" d="M38,26H16a1,1,0,0,0,0,2H38a1,1,0,0,0,0-2Z"/>
</g>
</svg>