<?xml version="1.0" ?>
<!-- Uploaded to: SVG Repo, www.svgrepo.com, Generator: SVG Repo Mixer Tools -->
<svg width="800px" height="800px" viewBox="0 0 56 56" xmlns="http://www.w3.org/2000/svg">
<defs>
<style>.cls-1{fill:#231f20;}</style>
</defs>
<title/>
<g data-name="06 Gupy Fish" id="_06_Gupy_Fish">
<path class="cls-1" d="M9,24a3,3,0,1,0,3,3A3,3,0,0,0,9,24Zm0,4a1,1,0,1,1,1-1A1,1,0,0,1,9,28Z"/>
<path class="cls-1" d="M17,30a3,3,0,0,0-3-3,1,1,0,0,0,0,2,1,1,0,0,1,0,2,1,1,0,0,0,0,2A3,3,0,0,0,17,30Z"/>
<path class="cls-1" d="M43,15a5,5,0,0,0-5,5v1H35.92A7,7,0,0,0,29,15a1,1,0,0,0-1,1v5H7a5,5,0,0,0-5,5,9,9,0,0,0,9,9H22v3a1,1,0,0,0,2,0V36.41l2.29,2.3a1,1,0,0,0,1.42,0,1,1,0,0,0,0-1.42L25.41,35H38v1a5,5,0,0,0,5,5A11,11,0,0,0,54,30V26A11,11,0,0,0,43,15ZM30,17.1A5,5,0,0,1,33.9,21H30ZM14,33H11a7,7,0,0,1-7-7,3,3,0,0,1,3-3H38V33Zm38-3a9,9,0,0,1-9,9,3,3,0,0,1-3-3V20a3,3,0,0,1,3-3,9,9,0,0,1,9,9Z"/>
</g>
</svg>