<?xml version="1.0" encoding="iso-8859-1"?>
<!-- Uploaded to: SVG Repo, www.svgrepo.com, Generator: SVG Repo Mixer Tools -->
<svg fill="#000000" height="800px" width="800px" version="1.1" id="Layer_1" xmlns="http://www.w3.org/2000/svg" xmlns:xlink="http://www.w3.org/1999/xlink" 
	 viewBox="0 0 512 512" xml:space="preserve">
<g>
	<g>
		<g>
			<path d="M458.204,243.594c-1.578,0-3.137,0.346-4.566,1.017l-43.672,20.471v-25.758c0-24.8-20.176-44.977-44.976-44.977h-71.582
				c-0.27,0-0.538,0.013-0.804,0.033c-24.656-11.664-52.023-18.031-79.173-18.031c-73.281,0-135.109,45.699-153.28,107.593H41.999
				c-16.809,0-30.485,13.676-30.485,30.485v14.344c0,16.809,13.676,30.485,30.485,30.485h18.152
				c18.169,61.894,79.998,107.593,153.28,107.593c27.15,0,54.517-6.367,79.173-18.031c0.266,0.019,0.534,0.033,0.804,0.033h71.582
				c24.8,0,44.976-20.177,44.976-44.977v-25.758l43.672,20.471c1.429,0.67,2.988,1.017,4.566,1.017
				c30.166,0,53.796-34.264,53.796-78.005C512,277.858,488.369,243.594,458.204,243.594z M55.716,337.738H41.999
				c-4.945,0-8.967-4.022-8.967-8.967v-14.344c0-4.945,4.022-8.967,8.967-8.967h13.717c-0.643,5.301-0.984,10.684-0.984,16.139
				S55.072,332.436,55.716,337.738z M364.99,215.866c12.934,0,23.457,10.523,23.457,23.458v35.844l-12.621,5.917
				c-8.312-23.344-23.792-44.902-45.556-62.88c-0.957-0.79-1.924-1.569-2.899-2.339H364.99z M213.43,445.33
				c-75.642,0-137.181-55.506-137.181-123.732s61.539-123.732,137.181-123.732c78.809,0,147.94,57.818,147.94,123.732
				S292.24,445.33,213.43,445.33z M388.448,403.874h-0.001c0,12.935-10.523,23.458-23.457,23.458h-37.617
				c0.975-0.77,1.942-1.548,2.898-2.339c21.764-17.979,37.243-39.536,45.556-62.88l12.621,5.917V403.874z M460.329,377.958
				l-79.024-37.043c0.465-2.836,0.839-5.688,1.099-8.557h16.804c5.941,0,10.759-4.818,10.759-10.759s-4.818-10.759-10.759-10.759
				h-16.804c-0.259-2.868-0.634-5.721-1.099-8.557l79.024-37.043c16.552,1.99,30.153,26.989,30.153,56.359
				C490.482,350.969,476.881,375.968,460.329,377.958z"/>
			<circle cx="150.307" cy="294.696" r="10.759"/>
			<path d="M284.401,283.427c-2.385-1.772-5.399-2.481-8.32-1.951l-58.584,10.546c-5.849,1.053-9.736,6.648-8.683,12.495
				c1.053,5.85,6.647,9.735,12.495,8.683l53.536-9.637c4.733,4.864,7.401,11.309,7.438,18.226
				c0.035,6.748-2.451,13.047-6.938,17.829l-54.627-9.833c-5.85-1.048-11.444,2.836-12.495,8.683
				c-1.053,5.849,2.835,11.443,8.683,12.495l59.768,10.758c0.634,0.114,1.272,0.17,1.905,0.17c2.332,0,4.621-0.759,6.506-2.19
				c11.974-9.091,18.795-22.951,18.716-38.029C303.719,306.464,296.649,292.522,284.401,283.427z"/>
			<path d="M69.935,192.918c0-19.282-15.686-34.968-34.968-34.968S0,173.636,0,192.918s15.686,34.968,34.968,34.968
				S69.935,212.2,69.935,192.918z M21.519,192.918c0-7.416,6.033-13.449,13.449-13.449c7.416,0,13.449,6.033,13.449,13.449
				s-6.033,13.449-13.449,13.449C27.551,206.367,21.519,200.333,21.519,192.918z"/>
			<path d="M86.991,133.575c24.378,0,44.212-19.834,44.212-44.212s-19.834-44.212-44.212-44.212S42.779,64.985,42.779,89.364
				C42.779,113.744,62.611,133.575,86.991,133.575z M86.991,66.67c12.513,0,22.693,10.18,22.693,22.695
				c0,12.513-10.18,22.693-22.693,22.693c-12.513,0-22.693-10.18-22.693-22.693C64.297,76.85,74.478,66.67,86.991,66.67z"/>
			<path d="M441.979,310.839h-1.076c-5.941,0-10.759,4.818-10.759,10.759s4.818,10.759,10.759,10.759h1.076
				c5.941,0,10.759-4.818,10.759-10.759S447.921,310.839,441.979,310.839z"/>
		</g>
	</g>
</g>
</svg>