<?xml version="1.0" ?>
<!-- Uploaded to: SVG Repo, www.svgrepo.com, Generator: SVG Repo Mixer Tools -->
<svg width="800px" height="800px" viewBox="0 0 56 56" xmlns="http://www.w3.org/2000/svg">
<defs>
<style>.cls-1{fill:#231f20;}</style>
</defs>
<title/>
<g data-name="17 Snakehead Fish" id="_17_Snakehead_Fish">
<path class="cls-1" d="M15,26a1,1,0,0,0,0,2,1,1,0,0,1,0,2,1,1,0,0,0,0,2,3,3,0,0,0,0-6Z"/>
<path class="cls-1" d="M52.25,22.44a3.41,3.41,0,0,0-3.5.08L46,24.22V22a1,1,0,0,0-1-1H44V18.05A5.06,5.06,0,0,0,39,13H21.05A5.06,5.06,0,0,0,16,18.05V21H10.91A8.92,8.92,0,0,0,2,29.91,5.09,5.09,0,0,0,7.09,35H20v2.89A5.11,5.11,0,0,0,25.11,43H38.89A5.11,5.11,0,0,0,44,37.89V35h1a1,1,0,0,0,1-1V31.78l2.75,1.7a3.44,3.44,0,0,0,3.5.08,3.37,3.37,0,0,0,1.75-3V25.41A3.37,3.37,0,0,0,52.25,22.44ZM18,18.05A3.06,3.06,0,0,1,21.05,15H39a3.06,3.06,0,0,1,3,3.05V21H18Zm-8,7a1,1,0,1,1-1,1A1,1,0,0,1,10,25ZM42,37.89A3.11,3.11,0,0,1,38.89,41H25.11A3.11,3.11,0,0,1,22,37.89V35H42ZM44,33H7.09A3.1,3.1,0,0,1,4,29.91a6.92,6.92,0,0,1,4.36-6.42A3,3,0,1,0,10.3,23c.2,0,.41,0,.61,0H44V33Zm8-2.41a1.37,1.37,0,0,1-.73,1.22,1.44,1.44,0,0,1-1.47,0L46,29.42V26.58l3.8-2.36a1.44,1.44,0,0,1,1.47,0A1.37,1.37,0,0,1,52,25.41Z"/>
</g>
</svg>